<?xml version="1.0" encoding="UTF-8" standalone="no"?>
<!-- Created with Inkscape (http://www.inkscape.org/) -->

<svg
   width="210mm"
   height="297mm"
   viewBox="0 0 210 297"
   version="1.1"
   id="svg1"
   inkscape:export-filename="favicon.png"
   inkscape:export-xdpi="192"
   inkscape:export-ydpi="192"
   inkscape:version="1.3-dev (589b54c0, 2022-08-09)"
   sodipodi:docname="icon.svg"
   xmlns:inkscape="http://www.inkscape.org/namespaces/inkscape"
   xmlns:sodipodi="http://sodipodi.sourceforge.net/DTD/sodipodi-0.dtd"
   xmlns="http://www.w3.org/2000/svg"
   xmlns:svg="http://www.w3.org/2000/svg">
  <sodipodi:namedview
     id="namedview1"
     pagecolor="#505050"
     bordercolor="#eeeeee"
     borderopacity="1"
     inkscape:showpageshadow="0"
     inkscape:pageopacity="0"
     inkscape:pagecheckerboard="0"
     inkscape:deskcolor="#d1d1d1"
     inkscape:document-units="mm"
     showgrid="false"
     inkscape:zoom="3.3638608"
     inkscape:cx="-673.48208"
     inkscape:cy="-310.06039"
     inkscape:window-width="1920"
     inkscape:window-height="991"
     inkscape:window-x="-9"
     inkscape:window-y="-9"
     inkscape:window-maximized="1"
     inkscape:current-layer="layer1" />
  <defs
     id="defs1" />
  <g
     inkscape:label="Capa 1"
     inkscape:groupmode="layer"
     id="layer1">
    <path
       d="m -57.437812,-110.09899 q -9.681625,0 -15.100473,-4.84389 -5.418812,-4.91729 -5.418812,-14.38485 0,-9.541 5.418812,-14.38489 5.418848,-4.91725 15.100473,-4.91725 h 24.204082 v 8.44007 h -24.204082 q -4.696308,0 -7.225106,2.64213 -2.456519,2.64213 -2.456519,8.21994 0,5.5044 2.456519,8.14649 2.528798,2.64213 7.225106,2.64213 h 24.926578 v 8.44012 z"
       id="path12"
       style="font-size:42.3333px;font-family:'Zen Dots';-inkscape-font-specification:'Zen Dots, Normal';fill:#9f5a00;fill-opacity:1;stroke:none;stroke-width:0.499999;stroke-dasharray:none;stroke-opacity:1"
       inkscape:export-filename="icon_v.0.0.3-prealpha.png"
       inkscape:export-xdpi="192"
       inkscape:export-ydpi="192" />
    <path
       d="m -58.496146,-111.15733 q -9.681625,0 -15.100473,-4.84389 -5.418812,-4.91729 -5.418812,-14.38485 0,-9.541 5.418812,-14.38489 5.418848,-4.91725 15.100473,-4.91725 h 24.204082 v 8.44007 h -24.204082 q -4.696308,0 -7.225106,2.64213 -2.456519,2.64213 -2.456519,8.21994 0,5.5044 2.456519,8.14649 2.528798,2.64213 7.225106,2.64213 h 24.926578 v 8.44012 z"
       id="path11"
       style="font-size:42.3333px;font-family:'Zen Dots';-inkscape-font-specification:'Zen Dots, Normal';fill:#ff9100;fill-opacity:1;stroke:#ff9100;stroke-width:0.499999;stroke-dasharray:none;stroke-opacity:1" />
    <path
       d="m -121.20037,-196.11705 v -14.19273 h 7.31941 q 2.65081,0 4.13447,1.26584 1.48366,1.26584 1.48366,3.66326 0,2.4166 -1.48366,3.68243 -1.48366,1.26584 -4.13447,1.26584 h -4.45099 v 4.31536 z m 7.31941,-11.9871 h -4.45099 v 5.46612 h 4.45099 q 1.28584,0 1.95843,-0.67128 0.69238,-0.69046 0.69238,-2.07137 0,-1.36174 -0.69238,-2.03302 -0.67259,-0.69045 -1.95843,-0.69045 z"
       id="path20"
       style="font-size:42.3333px;font-family:'Zen Dots';-inkscape-font-specification:'Zen Dots, Normal';fill:#2979ff;fill-opacity:1;stroke:#2979ff;stroke-width:0.499999;stroke-dasharray:none;stroke-opacity:1" />
    <path
       d="m -106.48244,-200.43241 v -13.71324 h 2.86842 v 3.83587 h 6.013776 q 1.740832,0 2.532118,0.84389 0.81107,0.82472 0.81107,2.18645 v 6.84703 h -2.868416 v -6.52098 q 0,-1.15076 -1.18693,-1.15076 h -5.301618 v 7.67174 z"
       id="path19"
       style="font-size:42.3333px;font-family:'Zen Dots';-inkscape-font-specification:'Zen Dots, Normal';fill:#2979ff;fill-opacity:1;stroke:#2979ff;stroke-width:0.499999;stroke-dasharray:none;stroke-opacity:1" />
    <path
       d="m -92.179937,-196.11705 v -14.19273 h 7.319405 q 2.650811,0 4.134474,1.26584 1.483663,1.26584 1.483663,3.66326 0,2.4166 -1.483663,3.68243 -1.483663,1.26584 -4.134474,1.26584 h -4.450989 v 4.31536 z m 7.319405,-11.9871 h -4.450989 v 5.46612 h 4.450989 q 1.285841,0 1.958435,-0.67128 0.692376,-0.69046 0.692376,-2.07137 0,-1.36174 -0.692376,-2.03302 -0.672594,-0.69045 -1.958435,-0.69045 z"
       id="path18"
       style="font-size:42.3333px;font-family:'Zen Dots';-inkscape-font-specification:'Zen Dots, Normal';fill:#2979ff;fill-opacity:1;stroke:#2979ff;stroke-width:0.499999;stroke-dasharray:none;stroke-opacity:1" />
    <path
       d="m -115.58223,-182.08863 q -2.65081,0 -4.13448,-1.26584 -1.48366,-1.28502 -1.48366,-3.75915 0,-2.49332 1.48366,-3.75916 1.48367,-1.28501 4.13448,-1.28501 h 6.62703 v 2.20562 h -6.62703 q -1.28584,0 -1.97822,0.69046 -0.67259,0.69046 -0.67259,2.14809 0,1.43845 0.67259,2.1289 0.69238,0.69046 1.97822,0.69046 h 6.82485 v 2.20563 z"
       id="path76"
       style="font-size:42.3333px;font-family:'Zen Dots';-inkscape-font-specification:'Zen Dots, Normal';fill:#ff9100;fill-opacity:1;stroke:#ff9100;stroke-width:0.499999;stroke-dasharray:none;stroke-opacity:1" />
    <path
       d="m -102.05122,-182.08863 q -2.65082,0 -4.13448,-1.26584 -1.48366,-1.28502 -1.48366,-3.75915 0,-2.49332 1.48366,-3.75916 1.48366,-1.28501 4.13448,-1.28501 h 4.945539 q 1.740831,0 2.650811,0.80553 0.929763,0.78635 0.929763,2.26316 0,3.01116 -3.580574,3.01116 h -7.477659 q 0.41542,1.78368 2.53212,1.78368 h 8.011776 v 2.20563 z m 0,-7.86354 q -2.03757,0 -2.51234,1.66861 h 7.319404 q 0.395643,0 0.613247,-0.23015 0.237386,-0.23016 0.237386,-0.63292 0,-0.80554 -0.850633,-0.80554 z"
       id="path75"
       style="font-size:42.3333px;font-family:'Zen Dots';-inkscape-font-specification:'Zen Dots, Normal';fill:#ff9100;fill-opacity:1;stroke:#ff9100;stroke-width:0.499999;stroke-dasharray:none;stroke-opacity:1" />
    <path
       d="m -91.744715,-182.18453 v -9.87737 h 8.882198 q 1.740831,0 2.532117,0.84389 0.811071,0.82472 0.811071,2.18645 v 6.84703 h -2.868416 v -6.52098 q 0,-1.15076 -1.186931,-1.15076 h -5.301625 v 7.67174 z"
       id="path74"
       style="font-size:42.3333px;font-family:'Zen Dots';-inkscape-font-specification:'Zen Dots, Normal';fill:#ff9100;fill-opacity:1;stroke:#ff9100;stroke-width:0.499999;stroke-dasharray:none;stroke-opacity:1" />
    <path
       d="m -72.140592,-182.18453 q -1.721051,0 -2.532117,-0.82471 -0.811072,-0.84389 -0.811072,-2.20563 v -4.6414 h -2.947543 v -2.20563 h 2.947543 v -3.03034 h 2.868416 v 3.03034 h 4.233387 v 2.20563 h -4.233387 v 4.29617 q 0,1.16995 1.186932,1.16995 h 3.600355 v 2.20562 z"
       id="path73"
       style="font-size:42.3333px;font-family:'Zen Dots';-inkscape-font-specification:'Zen Dots, Normal';fill:#ff9100;fill-opacity:1;stroke:#ff9100;stroke-width:0.499999;stroke-dasharray:none;stroke-opacity:1" />
    <path
       d="m -66.344395,-182.18453 v -9.87737 h 7.794176 q 1.721051,0 2.532117,0.84389 0.811072,0.82472 0.811072,2.18645 v 2.05219 h -2.907982 v -1.70696 q 0,-1.15076 -1.186932,-1.15076 h -4.134474 v 7.65256 z"
       id="path72"
       style="font-size:42.3333px;font-family:'Zen Dots';-inkscape-font-specification:'Zen Dots, Normal';fill:#ff9100;fill-opacity:1;stroke:#ff9100;stroke-width:0.499999;stroke-dasharray:none;stroke-opacity:1" />
    <path
       d="m -50.914302,-182.18453 q -1.602357,0 -2.45299,-0.78635 -0.850637,-0.78636 -0.850637,-2.24399 0,-1.43845 0.850637,-2.2248 0.850633,-0.78635 2.45299,-0.78635 h 7.596352 v -0.46031 q 0,-1.16994 -1.186927,-1.16994 h -8.387642 v -2.20563 h 9.139362 q 1.800178,0 2.551903,0.80553 0.75172,0.78636 0.75172,2.22481 v 6.84703 z m 0.514334,-2.20562 h 7.082018 v -1.63025 h -7.082018 q -0.37586,0 -0.593466,0.23015 -0.19782,0.21097 -0.19782,0.57538 0,0.36441 0.19782,0.59456 0.217606,0.23016 0.593466,0.23016 z"
       id="path71"
       style="font-size:42.3333px;font-family:'Zen Dots';-inkscape-font-specification:'Zen Dots, Normal';fill:#ff9100;fill-opacity:1;stroke:#ff9100;stroke-width:0.499999;stroke-dasharray:none;stroke-opacity:1" />
    <path
       d="m -38.273478,-182.18453 v -13.71324 h 2.868416 v 13.71324 z"
       id="path70"
       style="font-size:42.3333px;font-family:'Zen Dots';-inkscape-font-specification:'Zen Dots, Normal';fill:#ff9100;fill-opacity:1;stroke:#ff9100;stroke-width:0.499999;stroke-dasharray:none;stroke-opacity:1" />
    <path
       d="m -73.815451,-120.30913 v -14.19273 h 7.319405 q 2.650811,0 4.134474,1.26584 1.483664,1.26584 1.483664,3.66326 0,2.4166 -1.483664,3.68243 -1.483663,1.26584 -4.134474,1.26584 h -4.450989 v 4.31536 z m 7.319405,-11.9871 h -4.450989 v 5.46612 h 4.450989 q 1.285841,0 1.958435,-0.67128 0.692376,-0.69046 0.692376,-2.07137 0,-1.36174 -0.692376,-2.03302 -0.672594,-0.69045 -1.958435,-0.69045 z"
       id="path13"
       style="font-size:42.3333px;font-family:'Zen Dots';-inkscape-font-specification:'Zen Dots, Normal';fill:#00235c;fill-opacity:1;stroke:none;stroke-width:0.499999;stroke-dasharray:none;stroke-opacity:1" />
    <path
       d="m -74.873785,-121.36747 v -14.19273 h 7.319405 q 2.650811,0 4.134474,1.26584 1.483664,1.26584 1.483664,3.66326 0,2.4166 -1.483664,3.68243 -1.483663,1.26584 -4.134474,1.26584 h -4.450989 v 4.31536 z m 7.319405,-11.9871 h -4.450989 v 5.46612 h 4.450989 q 1.285841,0 1.958435,-0.67128 0.692376,-0.69046 0.692376,-2.07137 0,-1.36174 -0.692376,-2.03302 -0.672594,-0.69045 -1.958435,-0.69045 z"
       id="path1"
       style="font-size:42.3333px;font-family:'Zen Dots';-inkscape-font-specification:'Zen Dots, Normal';fill:#2979ff;fill-opacity:1;stroke:#2979ff;stroke-width:0.499999;stroke-dasharray:none;stroke-opacity:1" />
    <path
       d="m -59.62669,-124.62449 v -13.71324 h 2.868415 v 3.83587 h 6.013781 q 1.740832,0 2.532118,0.84389 0.81107,0.82472 0.81107,2.18645 v 6.84703 h -2.868416 v -6.52098 q 0,-1.15076 -1.18693,-1.15076 h -5.301623 v 7.67174 z"
       id="path14"
       style="font-size:42.3333px;font-family:'Zen Dots';-inkscape-font-specification:'Zen Dots, Normal';fill:#00235c;fill-opacity:1;stroke:none;stroke-width:0.499999;stroke-dasharray:none;stroke-opacity:1" />
    <path
       d="m -60.685024,-125.68283 v -13.71324 h 2.868415 v 3.83587 h 6.013781 q 1.740832,0 2.532118,0.84389 0.81107,0.82472 0.81107,2.18645 v 6.84703 h -2.868416 v -6.52098 q 0,-1.15076 -1.18693,-1.15076 h -5.301623 v 7.67174 z"
       id="path2"
       style="font-size:42.3333px;font-family:'Zen Dots';-inkscape-font-specification:'Zen Dots, Normal';fill:#2979ff;fill-opacity:1;stroke:#2979ff;stroke-width:0.499999;stroke-dasharray:none;stroke-opacity:1" />
    <path
       d="m -45.853354,-120.30913 v -14.19273 h 7.319405 q 2.650811,0 4.134474,1.26584 1.483663,1.26584 1.483663,3.66326 0,2.4166 -1.483663,3.68243 -1.483663,1.26584 -4.134474,1.26584 h -4.450989 v 4.31536 z m 7.319405,-11.9871 h -4.450989 v 5.46612 h 4.450989 q 1.285841,0 1.958435,-0.67128 0.692376,-0.69046 0.692376,-2.07137 0,-1.36174 -0.692376,-2.03302 -0.672594,-0.69045 -1.958435,-0.69045 z"
       id="path15"
       style="font-size:42.3333px;font-family:'Zen Dots';-inkscape-font-specification:'Zen Dots, Normal';fill:#00235c;fill-opacity:1;stroke:none;stroke-width:0.499999;stroke-dasharray:none;stroke-opacity:1" />
    <path
       d="m -46.911688,-121.36747 v -14.19273 h 7.319405 q 2.650811,0 4.134474,1.26584 1.483663,1.26584 1.483663,3.66326 0,2.4166 -1.483663,3.68243 -1.483663,1.26584 -4.134474,1.26584 h -4.450989 v 4.31536 z m 7.319405,-11.9871 h -4.450989 v 5.46612 h 4.450989 q 1.285841,0 1.958435,-0.67128 0.692376,-0.69046 0.692376,-2.07137 0,-1.36174 -0.692376,-2.03302 -0.672594,-0.69045 -1.958435,-0.69045 z"
       id="path3"
       style="font-size:42.3333px;font-family:'Zen Dots';-inkscape-font-specification:'Zen Dots, Normal';fill:#2979ff;fill-opacity:1;stroke:#2979ff;stroke-width:0.499999;stroke-dasharray:none;stroke-opacity:1" />
    <path
       d="m -0.23622067,-172.07752 q -2.65081003,0 -4.13448003,-1.26584 -1.48366,-1.28502 -1.48366,-3.75915 0,-2.49332 1.48366,-3.75916 1.48367,-1.28501 4.13448003,-1.28501 H 6.3908093 v 2.20562 h -6.62702997 q -1.28584003,0 -1.97822003,0.69046 -0.67259,0.69046 -0.67259,2.14809 0,1.43845 0.67259,2.1289 0.69238,0.69046 1.97822003,0.69046 H 6.5886273 v 2.20563 z"
       id="path4"
       style="font-size:42.3333px;font-family:'Zen Dots';-inkscape-font-specification:'Zen Dots, Normal';fill:#ff9100;fill-opacity:1;stroke:#ff9100;stroke-width:0.499999;stroke-dasharray:none;stroke-opacity:1" />
    <path
       d="m 13.294784,-172.07752 q -2.650811,0 -4.1344737,-1.26584 -1.483663,-1.28502 -1.483663,-3.75915 0,-2.49332 1.483663,-3.75916 1.4836627,-1.28501 4.1344737,-1.28501 h 4.945544 q 1.740831,0 2.650811,0.80553 0.929763,0.78635 0.929763,2.26316 0,3.01116 -3.580574,3.01116 h -7.477662 q 0.415425,1.78368 2.532118,1.78368 h 8.011781 v 2.20563 z m 0,-7.86354 q -2.037564,0 -2.512336,1.66861 h 7.319405 q 0.395643,0 0.613247,-0.23015 0.237386,-0.23016 0.237386,-0.63292 0,-0.80554 -0.850633,-0.80554 z"
       id="path5"
       style="font-size:42.3333px;font-family:'Zen Dots';-inkscape-font-specification:'Zen Dots, Normal';fill:#ff9100;fill-opacity:1;stroke:#ff9100;stroke-width:0.499999;stroke-dasharray:none;stroke-opacity:1" />
    <path
       d="m 23.601294,-172.17342 v -9.87737 h 8.882198 q 1.740831,0 2.532117,0.84389 0.811071,0.82472 0.811071,2.18645 v 6.84703 h -2.868416 v -6.52098 q 0,-1.15076 -1.186931,-1.15076 h -5.301625 v 7.67174 z"
       id="path6"
       style="font-size:42.3333px;font-family:'Zen Dots';-inkscape-font-specification:'Zen Dots, Normal';fill:#ff9100;fill-opacity:1;stroke:#ff9100;stroke-width:0.499999;stroke-dasharray:none;stroke-opacity:1" />
    <path
       d="m 43.205417,-172.17342 q -1.721051,0 -2.532117,-0.82471 -0.811072,-0.84389 -0.811072,-2.20563 v -4.6414 h -2.947543 v -2.20563 h 2.947543 v -3.03034 h 2.868416 v 3.03034 h 4.233387 v 2.20563 h -4.233387 v 4.29617 q 0,1.16995 1.186932,1.16995 h 3.600355 v 2.20562 z"
       id="path7"
       style="font-size:42.3333px;font-family:'Zen Dots';-inkscape-font-specification:'Zen Dots, Normal';fill:#ff9100;fill-opacity:1;stroke:#ff9100;stroke-width:0.499999;stroke-dasharray:none;stroke-opacity:1" />
    <path
       d="m 49.001614,-172.17342 v -9.87737 h 7.794176 q 1.721051,0 2.532117,0.84389 0.811072,0.82472 0.811072,2.18645 v 2.05219 h -2.907982 v -1.70696 q 0,-1.15076 -1.186932,-1.15076 h -4.134474 v 7.65256 z"
       id="path8"
       style="font-size:42.3333px;font-family:'Zen Dots';-inkscape-font-specification:'Zen Dots, Normal';fill:#ff9100;fill-opacity:1;stroke:#ff9100;stroke-width:0.499999;stroke-dasharray:none;stroke-opacity:1" />
    <path
       d="m 64.431707,-172.17342 q -1.602357,0 -2.45299,-0.78635 -0.850637,-0.78636 -0.850637,-2.24399 0,-1.43845 0.850637,-2.2248 0.850633,-0.78635 2.45299,-0.78635 h 7.596352 v -0.46031 q 0,-1.16994 -1.186927,-1.16994 H 62.45349 v -2.20563 h 9.139362 q 1.800178,0 2.551903,0.80553 0.75172,0.78636 0.75172,2.22481 v 6.84703 z m 0.514334,-2.20562 h 7.082018 v -1.63025 h -7.082018 q -0.37586,0 -0.593466,0.23015 -0.19782,0.21097 -0.19782,0.57538 0,0.36441 0.19782,0.59456 0.217606,0.23016 0.593466,0.23016 z"
       id="path9"
       style="font-size:42.3333px;font-family:'Zen Dots';-inkscape-font-specification:'Zen Dots, Normal';fill:#ff9100;fill-opacity:1;stroke:#ff9100;stroke-width:0.499999;stroke-dasharray:none;stroke-opacity:1" />
    <path
       d="m 77.072531,-172.17342 v -13.71324 h 2.868416 v 13.71324 z"
       id="path10"
       style="font-size:42.3333px;font-family:'Zen Dots';-inkscape-font-specification:'Zen Dots, Normal';fill:#ff9100;fill-opacity:1;stroke:#ff9100;stroke-width:0.499999;stroke-dasharray:none;stroke-opacity:1" />
    <path
       id="path44"
       style="fill:#2979ff;fill-opacity:1;stroke:none;stroke-width:0.499999;stroke-linecap:round;stroke-linejoin:round;stroke-opacity:1;stop-color:#000000"
       d="M -194.82945 -84.315784 C -196.2148 -84.315784 -197.33007 -83.35367 -197.33007 -82.158809 L -197.33007 -80.304142 L -197.33007 -75.830514 L -197.33007 -68.440784 A 5.2916665 5.2916665 0 0 1 -192.03841 -73.73245 L -183.37589 -73.73245 C -182.27207 -73.956863 -181.45507 -74.807991 -181.45507 -75.830514 L -181.45507 -82.158809 C -181.45507 -83.35367 -182.57035 -84.315784 -183.9557 -84.315784 L -194.82945 -84.315784 z " />
    <path
       id="path34"
       style="fill:#ff9100;fill-opacity:1;stroke:none;stroke-width:4;stroke-linecap:round;stroke-linejoin:round;stroke-dasharray:none;stroke-opacity:1;stop-color:#000000"
       d="m -180.39673,-74.243013 c 0,1.022524 -0.817,1.873651 -1.92082,2.098064 h -5.16247 -3.50005 a 5.2916665,5.2916665 0 0 0 -0.48834,0.02274 5.2916665,5.2916665 0 0 0 -2.70061,1.045931 5.2916665,5.2916665 0 0 0 -0.37569,0.312126 5.2916665,5.2916665 0 0 0 -0.001,10e-4 5.2916665,5.2916665 0 0 0 -0.34417,0.344165 5.2916665,5.2916665 0 0 0 -0.001,0.001 5.2916665,5.2916665 0 0 0 -0.31213,0.375688 5.2916665,5.2916665 0 0 0 -1.04593,2.70061 5.2916665,5.2916665 0 0 0 -0.0227,0.488342 c 0,2.922498 2.36918,5.291663 5.29166,5.291667 h 10.58334 v -3.96875 h -10.58334 c -0.73062,-4e-6 -1.32291,-0.592293 -1.32291,-1.322917 0,-0.730622 0.59229,-1.322912 1.32291,-1.322916 h 10.58334 v -3.96875 z" />
    <g
       id="g41"
       transform="translate(0.15654804)"
       style="fill:#ff9100;fill-opacity:1" />
  </g>
</svg>
