<?xml version="1.0" encoding="UTF-8"?>
<svg width="85.336mm" height="14mm" version="1.1" viewBox="0 0 85.336 14" xmlns="http://www.w3.org/2000/svg">
 <g transform="translate(-62.332 -141.5)">
  <rect id="bg" x="62.332" y="141.5" width="85.336" height="14" rx="0" ry="0" fill="none" stop-color="#000000" stroke-linecap="round" stroke-linejoin="round" stroke-width=".26458px" style="-inkscape-stroke:none"/>
  <g id="php" fill="#4f5b93">
   <path d="m63.332 154.5v-9.4468h4.7234q1.7106 0 2.6681 0.84256 0.95745 0.84255 0.95745 2.4383 0 1.6085-0.95745 2.4511-0.95745 0.84256-2.6681 0.84256h-2.8724v2.8724zm4.7234-7.9788h-2.8724v3.6383h2.8724q0.82979 0 1.2638-0.44681 0.44681-0.45958 0.44681-1.3787 0-0.90638-0.44681-1.3532-0.43404-0.45958-1.2638-0.45958z"/>
   <path d="m72.83 151.63v-9.1277h1.8511v2.5532h3.8809q1.1234 0 1.634 0.5617 0.52341 0.54894 0.52341 1.4553v4.5575h-1.8511v-4.3404q0-0.76596-0.76596-0.76596h-3.4213v5.1064z"/>
   <path d="m82.059 154.5v-9.4468h4.7234q1.7106 0 2.6681 0.84256 0.95745 0.84255 0.95745 2.4383 0 1.6085-0.95745 2.4511-0.95745 0.84256-2.6681 0.84256h-2.8724v2.8724zm4.7234-7.9788h-2.8724v3.6383h2.8724q0.82979 0 1.2638-0.44681 0.44681-0.45958 0.44681-1.3787 0-0.90638-0.44681-1.3532-0.43404-0.45958-1.2638-0.45958z"/>
  </g>
  <g id="central" fill="#1e1e1e">
   <path d="m94.928 151.69q-1.7106 0-2.6681-0.84256-0.95745-0.85532-0.95745-2.5021 0-1.6596 0.95745-2.5021 0.95745-0.85532 2.6681-0.85532h4.2766v1.4681h-4.2766q-0.82979 0-1.2766 0.45958-0.43404 0.45957-0.43404 1.4298 0 0.95745 0.43404 1.417 0.44681 0.45958 1.2766 0.45958h4.4043v1.4681z"/>
   <path d="m103.66 151.69q-1.7106 0-2.6681-0.84256-0.95745-0.85532-0.95745-2.5021 0-1.6596 0.95745-2.5021 0.95745-0.85532 2.6681-0.85532h3.1915q1.1234 0 1.7106 0.53617 0.6 0.52341 0.6 1.5064 0 2.0043-2.3106 2.0043h-4.8255q0.26808 1.1872 1.634 1.1872h5.1702v1.4681zm0-5.2341q-1.3149 0-1.6213 1.1106h4.7234q0.25532 0 0.39575-0.15319 0.15319-0.15319 0.15319-0.42128 0-0.53617-0.54894-0.53617z"/>
   <path d="m110.31 151.63v-6.5745h5.7319q1.1234 0 1.634 0.5617 0.52341 0.54894 0.52341 1.4553v4.5575h-1.8511v-4.3404q0-0.76596-0.76596-0.76596h-3.4213v5.1064z"/>
   <path d="m122.96 151.63q-1.1106 0-1.634-0.54894-0.5234-0.5617-0.5234-1.4681v-3.0894h-1.9021v-1.4681h1.9021v-2.017h1.8511v2.017h2.7319v1.4681h-2.7319v2.8596q0 0.77873 0.76596 0.77873h2.3234v1.4681z"/>
   <path d="m126.7 151.63v-6.5745h5.0298q1.1106 0 1.634 0.5617 0.52341 0.54894 0.52341 1.4553v1.366h-1.8766v-1.1362q0-0.76596-0.76596-0.76596h-2.6681v5.0936z"/>
   <path d="m136.66 151.63q-1.034 0-1.583-0.52341-0.54894-0.5234-0.54894-1.4936 0-0.95745 0.54894-1.4808 0.54894-0.52341 1.583-0.52341h4.9022v-0.30638q0-0.77873-0.76596-0.77873h-5.4128v-1.4681h5.8979q1.1617 0 1.6468 0.53617 0.48511 0.52341 0.48511 1.4809v4.5575zm0.33192-1.4681h4.5702v-1.0851h-4.5702q-0.24255 0-0.38298 0.15319-0.12766 0.14043-0.12766 0.38298 0 0.24256 0.12766 0.39575 0.14043 0.15319 0.38298 0.15319z"/>
   <path d="m144.82 151.63v-9.1277h1.8511v9.1277z"/>
  </g>
 </g>
</svg>
