<?xml version="1.0" encoding="UTF-8"?>
<svg width="490" height="70" version="1.1" viewBox="0 0 490 70" xmlns="http://www.w3.org/2000/svg">
 <g id="phpcentral">
  <g transform="translate(.95963 .93023)">
   <g stroke-width="1.0867">
    <g id="php" transform="matrix(1.7662 0 0 1.7123 102.58 -719.64)" fill="#2979ff" stroke="#2979ff">
     <path d="m-58.078 460.06v-31.327h15.663q5.6727 0 8.8477 2.794t3.175 8.0857q0 5.334-3.175 8.128t-8.8477 2.794h-9.525v9.525zm15.663-26.458h-9.525v12.065h9.525q2.7517 0 4.191-1.4817 1.4817-1.524 1.4817-4.572 0-3.0057-1.4817-4.4873-1.4393-1.524-4.191-1.524z"/>
     <path d="m-26.582 450.53v-30.268h6.1383v8.4667h12.869q3.7253 0 5.4187 1.8627 1.7357 1.8203 1.7357 4.826v15.113h-6.1383v-14.393q0-2.54-2.54-2.54h-11.345v16.933z"/>
     <path d="m4.0245 460.06v-31.327h15.663q5.6727 0 8.8477 2.794 3.175 2.794 3.175 8.0857 0 5.334-3.175 8.128-3.175 2.794-8.8477 2.794h-9.525v9.525zm15.663-26.458h-9.525v12.065h9.525q2.7517 0 4.191-1.4817 1.4817-1.524 1.4817-4.572 0-3.0057-1.4817-4.4873-1.4393-1.524-4.191-1.524z"/>
    </g>
    <g id="central" transform="matrix(1.7662 0 0 1.7123 102.58 -719.64)" fill="#ff9100" stroke="#ff9100">
     <path d="m46.696 450.75q-5.6727 0-8.8477-2.794-3.175-2.8363-3.175-8.2973 0-5.5033 3.175-8.2973 3.175-2.8363 8.8477-2.8363h14.182v4.8683h-14.182q-2.7517 0-4.2333 1.524-1.4393 1.524-1.4393 4.7413 0 3.175 1.4393 4.699 1.4817 1.524 4.2333 1.524h14.605v4.8683z"/>
     <path d="m75.652 450.75q-5.6727 0-8.8477-2.794-3.175-2.8363-3.175-8.2973 0-5.5033 3.175-8.2973 3.175-2.8363 8.8477-2.8363h10.583q3.7253 0 5.6727 1.778 1.9897 1.7357 1.9897 4.9953 0 6.6463-7.6623 6.6463h-16.002q0.889 3.937 5.4187 3.937h17.145v4.8683zm0-17.357q-4.3603 0-5.3763 3.683h15.663q0.84667 0 1.3123-0.508 0.508-0.508 0.508-1.397 0-1.778-1.8203-1.778z"/>
     <path d="m97.708 450.53v-21.802h19.008q3.7253 0 5.4187 1.8627 1.7357 1.8203 1.7357 4.826v15.113h-6.1383v-14.393q0-2.54-2.54-2.54h-11.345v16.933z"/>
     <path d="m139.66 450.53q-3.683 0-5.4187-1.8203-1.7357-1.8627-1.7357-4.8683v-10.245h-6.3077v-4.8683h6.3077v-6.6887h6.1383v6.6887h9.0593v4.8683h-9.0593v9.4827q0 2.5823 2.54 2.5823h7.7047v4.8683z"/>
     <path d="m152.06 450.53v-21.802h16.679q3.683 0 5.4187 1.8627 1.7357 1.8203 1.7357 4.826v4.5297h-6.223v-3.7677q0-2.54-2.54-2.54h-8.8477v16.891z"/>
     <path d="m185.08 450.53q-3.429 0-5.2493-1.7357-1.8203-1.7357-1.8203-4.953 0-3.175 1.8203-4.9107 1.8203-1.7357 5.2493-1.7357h16.256v-1.016q0-2.5823-2.54-2.5823h-17.949v-4.8683h19.558q3.8523 0 5.461 1.778 1.6087 1.7357 1.6087 4.9107v15.113zm1.1007-4.8683h15.155v-3.5983h-15.155q-0.80433 0-1.27 0.508-0.42333 0.46567-0.42333 1.27 0 0.80434 0.42333 1.3123 0.46567 0.508 1.27 0.508z"/>
     <path d="m212.13 450.53v-30.268h6.1383v30.268z"/>
    </g>
   </g>
  </g>
 </g>
</svg>
